<mxfile modified="2021-03-28T11:35:18.661Z" host="app.diagrams.net" agent="5.0 (Windows NT 10.0; Win64; x64) AppleWebKit/537.36 (KHTML, like Gecko) Chrome/89.0.4389.90 Safari/537.36" etag="1Lo_O7qdoQa9mBAHjdby" version="14.5.3" type="github">
  <diagram id="Ht1M8jgEwFfnCIfOTk4-" name="Page-1">
    <mxGraphModel dx="782" dy="1263" grid="1" gridSize="10" guides="1" tooltips="1" connect="1" arrows="1" fold="1" page="1" pageScale="1" pageWidth="1169" pageHeight="827" math="0" shadow="0">
      <root>
        <mxCell id="0" />
        <mxCell id="1" parent="0" />
        <mxCell id="SVmz3g7F0THpbIimjzE1-8" value="" style="group" vertex="1" connectable="0" parent="1">
          <mxGeometry x="160" y="-740" width="394" height="80" as="geometry" />
        </mxCell>
        <mxCell id="SVmz3g7F0THpbIimjzE1-2" value="" style="outlineConnect=0;fontColor=#232F3E;gradientColor=none;fillColor=#D05C17;strokeColor=none;dashed=0;verticalLabelPosition=bottom;verticalAlign=top;align=center;html=1;fontSize=12;fontStyle=0;aspect=fixed;pointerEvents=1;shape=mxgraph.aws4.ecs_service;" vertex="1" parent="SVmz3g7F0THpbIimjzE1-8">
          <mxGeometry width="56.888888888888886" height="69.33333333333333" as="geometry" />
        </mxCell>
        <mxCell id="SVmz3g7F0THpbIimjzE1-3" value="" style="outlineConnect=0;fontColor=#232F3E;gradientColor=none;fillColor=#D05C17;strokeColor=none;dashed=0;verticalLabelPosition=bottom;verticalAlign=top;align=center;html=1;fontSize=12;fontStyle=0;aspect=fixed;pointerEvents=1;shape=mxgraph.aws4.ecs_service;" vertex="1" parent="SVmz3g7F0THpbIimjzE1-8">
          <mxGeometry x="80" width="56.888888888888886" height="69.33333333333333" as="geometry" />
        </mxCell>
        <mxCell id="SVmz3g7F0THpbIimjzE1-4" value="" style="outlineConnect=0;fontColor=#232F3E;gradientColor=none;fillColor=#D05C17;strokeColor=none;dashed=0;verticalLabelPosition=bottom;verticalAlign=top;align=center;html=1;fontSize=12;fontStyle=0;aspect=fixed;pointerEvents=1;shape=mxgraph.aws4.ecs_service;" vertex="1" parent="SVmz3g7F0THpbIimjzE1-8">
          <mxGeometry width="56.888888888888886" height="69.33333333333333" as="geometry" />
        </mxCell>
        <mxCell id="SVmz3g7F0THpbIimjzE1-5" value="" style="outlineConnect=0;fontColor=#232F3E;gradientColor=none;fillColor=#D05C17;strokeColor=none;dashed=0;verticalLabelPosition=bottom;verticalAlign=top;align=center;html=1;fontSize=12;fontStyle=0;aspect=fixed;pointerEvents=1;shape=mxgraph.aws4.ecs_service;" vertex="1" parent="SVmz3g7F0THpbIimjzE1-8">
          <mxGeometry x="80" width="56.888888888888886" height="69.33333333333333" as="geometry" />
        </mxCell>
        <mxCell id="SVmz3g7F0THpbIimjzE1-6" value="" style="outlineConnect=0;fontColor=#232F3E;gradientColor=none;fillColor=#D05C17;strokeColor=none;dashed=0;verticalLabelPosition=bottom;verticalAlign=top;align=center;html=1;fontSize=12;fontStyle=0;aspect=fixed;pointerEvents=1;shape=mxgraph.aws4.ecs_service;" vertex="1" parent="SVmz3g7F0THpbIimjzE1-8">
          <mxGeometry x="250" width="56.888888888888886" height="69.33333333333333" as="geometry" />
        </mxCell>
        <mxCell id="SVmz3g7F0THpbIimjzE1-7" value="" style="outlineConnect=0;fontColor=#232F3E;gradientColor=none;fillColor=#D05C17;strokeColor=none;dashed=0;verticalLabelPosition=bottom;verticalAlign=top;align=center;html=1;fontSize=12;fontStyle=0;aspect=fixed;pointerEvents=1;shape=mxgraph.aws4.ecs_service;" vertex="1" parent="SVmz3g7F0THpbIimjzE1-8">
          <mxGeometry x="330" width="56.888888888888886" height="69.33333333333333" as="geometry" />
        </mxCell>
        <mxCell id="SVmz3g7F0THpbIimjzE1-29" value="CSV" style="text;html=1;strokeColor=none;fillColor=none;align=center;verticalAlign=middle;whiteSpace=wrap;rounded=0;" vertex="1" parent="SVmz3g7F0THpbIimjzE1-8">
          <mxGeometry x="177" y="30" width="40" height="20" as="geometry" />
        </mxCell>
        <mxCell id="SVmz3g7F0THpbIimjzE1-18" value="" style="group" vertex="1" connectable="0" parent="1">
          <mxGeometry x="30" y="-570" width="720" height="330" as="geometry" />
        </mxCell>
        <mxCell id="SVmz3g7F0THpbIimjzE1-16" value="" style="rounded=0;whiteSpace=wrap;html=1;" vertex="1" parent="SVmz3g7F0THpbIimjzE1-18">
          <mxGeometry width="720" height="330" as="geometry" />
        </mxCell>
        <mxCell id="SVmz3g7F0THpbIimjzE1-17" value="data slice" style="text;html=1;strokeColor=none;fillColor=none;align=center;verticalAlign=middle;whiteSpace=wrap;rounded=0;" vertex="1" parent="SVmz3g7F0THpbIimjzE1-18">
          <mxGeometry x="6.008968609865471" width="85.62780269058297" height="29.090909090909086" as="geometry" />
        </mxCell>
        <mxCell id="SVmz3g7F0THpbIimjzE1-23" value="dispatch data" style="shape=partialRectangle;whiteSpace=wrap;html=1;left=0;right=0;fillColor=none;" vertex="1" parent="SVmz3g7F0THpbIimjzE1-18">
          <mxGeometry y="40" width="720" height="30.91" as="geometry" />
        </mxCell>
        <mxCell id="SVmz3g7F0THpbIimjzE1-15" value="" style="group" vertex="1" connectable="0" parent="SVmz3g7F0THpbIimjzE1-18">
          <mxGeometry y="130" width="680" height="200" as="geometry" />
        </mxCell>
        <mxCell id="SVmz3g7F0THpbIimjzE1-9" value="" style="rounded=0;whiteSpace=wrap;html=1;" vertex="1" parent="SVmz3g7F0THpbIimjzE1-15">
          <mxGeometry width="680" height="200.00000000000003" as="geometry" />
        </mxCell>
        <mxCell id="SVmz3g7F0THpbIimjzE1-10" value="data flow" style="text;html=1;strokeColor=none;fillColor=none;align=center;verticalAlign=middle;whiteSpace=wrap;rounded=0;" vertex="1" parent="SVmz3g7F0THpbIimjzE1-15">
          <mxGeometry x="2.873239436619718" y="6.315789473684211" width="57.46478873239437" height="10.526315789473685" as="geometry" />
        </mxCell>
        <mxCell id="SVmz3g7F0THpbIimjzE1-27" value="&lt;table border=&quot;1&quot; width=&quot;100%&quot; cellpadding=&quot;4&quot; style=&quot;width: 100% ; height: 100% ; border-collapse: collapse&quot;&gt;&lt;tbody&gt;&lt;tr&gt;&lt;th align=&quot;center&quot;&gt;&lt;b&gt;data struct&lt;/b&gt;&lt;/th&gt;&lt;/tr&gt;&lt;tr&gt;&lt;td align=&quot;center&quot;&gt;prop-id&lt;br&gt;csv data&lt;br&gt;size&lt;br&gt;timestamp&lt;/td&gt;&lt;/tr&gt;&lt;tr&gt;&lt;td align=&quot;center&quot;&gt;route rules(key)&lt;/td&gt;&lt;/tr&gt;&lt;/tbody&gt;&lt;/table&gt;" style="text;html=1;strokeColor=none;fillColor=none;overflow=fill;" vertex="1" parent="SVmz3g7F0THpbIimjzE1-15">
          <mxGeometry x="569.8591549295775" y="31.578947368421055" width="95.77464788732394" height="168.42105263157896" as="geometry" />
        </mxCell>
        <mxCell id="SVmz3g7F0THpbIimjzE1-26" value="&lt;table border=&quot;1&quot; width=&quot;100%&quot; cellpadding=&quot;4&quot; style=&quot;width: 100% ; height: 100% ; border-collapse: collapse&quot;&gt;&lt;tbody&gt;&lt;tr&gt;&lt;th align=&quot;center&quot;&gt;&lt;b&gt;data struct&lt;/b&gt;&lt;/th&gt;&lt;/tr&gt;&lt;tr&gt;&lt;td align=&quot;center&quot;&gt;prop-id&lt;br&gt;csv data&lt;br&gt;size&lt;br&gt;timestamp&lt;/td&gt;&lt;/tr&gt;&lt;tr&gt;&lt;td align=&quot;center&quot;&gt;route rules(key)&lt;/td&gt;&lt;/tr&gt;&lt;/tbody&gt;&lt;/table&gt;" style="text;html=1;strokeColor=none;fillColor=none;overflow=fill;" vertex="1" parent="SVmz3g7F0THpbIimjzE1-15">
          <mxGeometry x="435.7746478873239" y="31.578947368421055" width="95.77464788732394" height="168.42105263157896" as="geometry" />
        </mxCell>
        <mxCell id="SVmz3g7F0THpbIimjzE1-25" value="&lt;table border=&quot;1&quot; width=&quot;100%&quot; cellpadding=&quot;4&quot; style=&quot;width: 100% ; height: 100% ; border-collapse: collapse&quot;&gt;&lt;tbody&gt;&lt;tr&gt;&lt;th align=&quot;center&quot;&gt;&lt;b&gt;data struct&lt;/b&gt;&lt;/th&gt;&lt;/tr&gt;&lt;tr&gt;&lt;td align=&quot;center&quot;&gt;prop-id&lt;br&gt;csv data&lt;br&gt;size&lt;br&gt;timestamp&lt;/td&gt;&lt;/tr&gt;&lt;tr&gt;&lt;td align=&quot;center&quot;&gt;route rules(key)&lt;/td&gt;&lt;/tr&gt;&lt;/tbody&gt;&lt;/table&gt;" style="text;html=1;strokeColor=none;fillColor=none;overflow=fill;" vertex="1" parent="SVmz3g7F0THpbIimjzE1-15">
          <mxGeometry x="292.11267605633805" y="31.578947368421055" width="95.77464788732394" height="168.42105263157896" as="geometry" />
        </mxCell>
        <mxCell id="SVmz3g7F0THpbIimjzE1-24" value="&lt;table border=&quot;1&quot; width=&quot;100%&quot; cellpadding=&quot;4&quot; style=&quot;width: 100% ; height: 100% ; border-collapse: collapse&quot;&gt;&lt;tbody&gt;&lt;tr&gt;&lt;th align=&quot;center&quot;&gt;&lt;b&gt;data struct&lt;/b&gt;&lt;/th&gt;&lt;/tr&gt;&lt;tr&gt;&lt;td align=&quot;center&quot;&gt;prop-id&lt;br&gt;csv data&lt;br&gt;size&lt;br&gt;timestamp&lt;/td&gt;&lt;/tr&gt;&lt;tr&gt;&lt;td align=&quot;center&quot;&gt;route rules(key)&lt;/td&gt;&lt;/tr&gt;&lt;/tbody&gt;&lt;/table&gt;" style="text;html=1;strokeColor=none;fillColor=none;overflow=fill;" vertex="1" parent="SVmz3g7F0THpbIimjzE1-15">
          <mxGeometry x="148.4507042253521" y="31.578947368421055" width="95.77464788732394" height="168.42105263157896" as="geometry" />
        </mxCell>
        <mxCell id="SVmz3g7F0THpbIimjzE1-22" value="&lt;table border=&quot;1&quot; width=&quot;100%&quot; cellpadding=&quot;4&quot; style=&quot;width: 100% ; height: 100% ; border-collapse: collapse&quot;&gt;&lt;tbody&gt;&lt;tr&gt;&lt;th align=&quot;center&quot;&gt;&lt;b&gt;data struct&lt;/b&gt;&lt;/th&gt;&lt;/tr&gt;&lt;tr&gt;&lt;td align=&quot;center&quot;&gt;prop-id&lt;br&gt;csv data&lt;br&gt;size&lt;br&gt;timestamp&lt;/td&gt;&lt;/tr&gt;&lt;tr&gt;&lt;td align=&quot;center&quot;&gt;route rules(key)&lt;/td&gt;&lt;/tr&gt;&lt;/tbody&gt;&lt;/table&gt;" style="text;html=1;strokeColor=none;fillColor=none;overflow=fill;" vertex="1" parent="SVmz3g7F0THpbIimjzE1-15">
          <mxGeometry x="14.366197183098592" y="31.578947368421055" width="95.77464788732394" height="168.42105263157896" as="geometry" />
        </mxCell>
        <mxCell id="SVmz3g7F0THpbIimjzE1-31" value="" style="endArrow=classic;html=1;exitX=0.154;exitY=1.1;exitDx=0;exitDy=0;exitPerimeter=0;entryX=0.163;entryY=0.003;entryDx=0;entryDy=0;entryPerimeter=0;" edge="1" parent="SVmz3g7F0THpbIimjzE1-18" source="SVmz3g7F0THpbIimjzE1-23" target="SVmz3g7F0THpbIimjzE1-9">
          <mxGeometry width="50" height="50" relative="1" as="geometry">
            <mxPoint x="340" y="160" as="sourcePoint" />
            <mxPoint x="127" y="128" as="targetPoint" />
          </mxGeometry>
        </mxCell>
        <mxCell id="SVmz3g7F0THpbIimjzE1-32" value="pull" style="text;html=1;strokeColor=none;fillColor=none;align=center;verticalAlign=middle;whiteSpace=wrap;rounded=0;" vertex="1" parent="SVmz3g7F0THpbIimjzE1-18">
          <mxGeometry x="80" y="90" width="40" height="20" as="geometry" />
        </mxCell>
        <mxCell id="SVmz3g7F0THpbIimjzE1-20" value="" style="endArrow=classic;html=1;entryX=0.458;entryY=0;entryDx=0;entryDy=0;entryPerimeter=0;" edge="1" parent="1" target="SVmz3g7F0THpbIimjzE1-16">
          <mxGeometry width="50" height="50" relative="1" as="geometry">
            <mxPoint x="360" y="-680" as="sourcePoint" />
            <mxPoint x="430" y="-570" as="targetPoint" />
          </mxGeometry>
        </mxCell>
        <mxCell id="SVmz3g7F0THpbIimjzE1-30" value="" style="rounded=0;whiteSpace=wrap;html=1;" vertex="1" parent="1">
          <mxGeometry x="30" y="-160" width="720" height="70" as="geometry" />
        </mxCell>
        <mxCell id="SVmz3g7F0THpbIimjzE1-33" value="" style="endArrow=classic;html=1;exitX=0.5;exitY=1;exitDx=0;exitDy=0;entryX=0.086;entryY=0;entryDx=0;entryDy=0;entryPerimeter=0;" edge="1" parent="1" source="SVmz3g7F0THpbIimjzE1-22" target="SVmz3g7F0THpbIimjzE1-30">
          <mxGeometry width="50" height="50" relative="1" as="geometry">
            <mxPoint x="370" y="-210" as="sourcePoint" />
            <mxPoint x="420" y="-260" as="targetPoint" />
          </mxGeometry>
        </mxCell>
        <mxCell id="SVmz3g7F0THpbIimjzE1-34" value="pull" style="text;html=1;strokeColor=none;fillColor=none;align=center;verticalAlign=middle;whiteSpace=wrap;rounded=0;" vertex="1" parent="1">
          <mxGeometry x="90" y="-210" width="40" height="20" as="geometry" />
        </mxCell>
        <mxCell id="SVmz3g7F0THpbIimjzE1-35" value="csv data" style="rounded=0;whiteSpace=wrap;html=1;" vertex="1" parent="1">
          <mxGeometry x="120" y="-155" width="80" height="60" as="geometry" />
        </mxCell>
        <mxCell id="SVmz3g7F0THpbIimjzE1-37" value="csv data" style="rounded=0;whiteSpace=wrap;html=1;" vertex="1" parent="1">
          <mxGeometry x="230" y="-155" width="80" height="60" as="geometry" />
        </mxCell>
        <mxCell id="SVmz3g7F0THpbIimjzE1-38" value="interface&lt;br&gt;do task" style="shape=ext;double=1;rounded=0;whiteSpace=wrap;html=1;" vertex="1" parent="1">
          <mxGeometry x="350" y="-160" width="60" height="70" as="geometry" />
        </mxCell>
        <mxCell id="SVmz3g7F0THpbIimjzE1-40" value="" style="endArrow=none;dashed=1;html=1;dashPattern=1 3;strokeWidth=2;" edge="1" parent="1" source="SVmz3g7F0THpbIimjzE1-30">
          <mxGeometry width="50" height="50" relative="1" as="geometry">
            <mxPoint x="370" y="-110" as="sourcePoint" />
            <mxPoint x="420" y="-160" as="targetPoint" />
          </mxGeometry>
        </mxCell>
        <mxCell id="SVmz3g7F0THpbIimjzE1-41" value="" style="endArrow=none;dashed=1;html=1;exitX=1;exitY=0.5;exitDx=0;exitDy=0;entryX=0;entryY=0.5;entryDx=0;entryDy=0;" edge="1" parent="1" source="SVmz3g7F0THpbIimjzE1-35" target="SVmz3g7F0THpbIimjzE1-37">
          <mxGeometry width="50" height="50" relative="1" as="geometry">
            <mxPoint x="370" y="-110" as="sourcePoint" />
            <mxPoint x="420" y="-160" as="targetPoint" />
          </mxGeometry>
        </mxCell>
        <mxCell id="SVmz3g7F0THpbIimjzE1-57" value="base handler&amp;nbsp;" style="text;html=1;strokeColor=none;fillColor=none;align=center;verticalAlign=middle;whiteSpace=wrap;rounded=0;" vertex="1" parent="1">
          <mxGeometry x="30" y="-160" width="90" height="30" as="geometry" />
        </mxCell>
        <mxCell id="SVmz3g7F0THpbIimjzE1-58" value="" style="endArrow=classic;html=1;exitX=1;exitY=0.5;exitDx=0;exitDy=0;entryX=0;entryY=0.5;entryDx=0;entryDy=0;" edge="1" parent="1" source="SVmz3g7F0THpbIimjzE1-37" target="SVmz3g7F0THpbIimjzE1-38">
          <mxGeometry width="50" height="50" relative="1" as="geometry">
            <mxPoint x="360" y="-140" as="sourcePoint" />
            <mxPoint x="410" y="-190" as="targetPoint" />
          </mxGeometry>
        </mxCell>
        <mxCell id="SVmz3g7F0THpbIimjzE1-59" value="output" style="rounded=1;whiteSpace=wrap;html=1;" vertex="1" parent="1">
          <mxGeometry x="610" y="-155" width="120" height="60" as="geometry" />
        </mxCell>
        <mxCell id="SVmz3g7F0THpbIimjzE1-60" value="" style="endArrow=classic;html=1;exitX=1;exitY=0.5;exitDx=0;exitDy=0;" edge="1" parent="1" source="SVmz3g7F0THpbIimjzE1-38" target="SVmz3g7F0THpbIimjzE1-59">
          <mxGeometry width="50" height="50" relative="1" as="geometry">
            <mxPoint x="360" y="-140" as="sourcePoint" />
            <mxPoint x="410" y="-190" as="targetPoint" />
          </mxGeometry>
        </mxCell>
        <mxCell id="SVmz3g7F0THpbIimjzE1-61" value="" style="rounded=0;whiteSpace=wrap;html=1;" vertex="1" parent="1">
          <mxGeometry x="30" y="-30" width="720" height="70" as="geometry" />
        </mxCell>
        <mxCell id="SVmz3g7F0THpbIimjzE1-69" style="edgeStyle=orthogonalEdgeStyle;rounded=0;orthogonalLoop=1;jettySize=auto;html=1;entryX=0.5;entryY=1;entryDx=0;entryDy=0;startArrow=classic;startFill=1;" edge="1" parent="1" source="SVmz3g7F0THpbIimjzE1-63" target="SVmz3g7F0THpbIimjzE1-38">
          <mxGeometry relative="1" as="geometry">
            <Array as="points">
              <mxPoint x="230" y="-50" />
              <mxPoint x="380" y="-50" />
            </Array>
          </mxGeometry>
        </mxCell>
        <mxCell id="SVmz3g7F0THpbIimjzE1-63" value="interface&lt;br&gt;do task" style="shape=ext;double=1;rounded=0;whiteSpace=wrap;html=1;" vertex="1" parent="1">
          <mxGeometry x="200" y="-30" width="60" height="70" as="geometry" />
        </mxCell>
        <mxCell id="SVmz3g7F0THpbIimjzE1-64" value="" style="endArrow=classic;html=1;exitX=0.5;exitY=1;exitDx=0;exitDy=0;entryX=0.063;entryY=0;entryDx=0;entryDy=0;entryPerimeter=0;" edge="1" parent="1" source="SVmz3g7F0THpbIimjzE1-57" target="SVmz3g7F0THpbIimjzE1-61">
          <mxGeometry width="50" height="50" relative="1" as="geometry">
            <mxPoint x="360" y="-50" as="sourcePoint" />
            <mxPoint x="410" y="-100" as="targetPoint" />
          </mxGeometry>
        </mxCell>
        <mxCell id="SVmz3g7F0THpbIimjzE1-65" value="extend" style="text;html=1;strokeColor=none;fillColor=none;align=center;verticalAlign=middle;whiteSpace=wrap;rounded=0;" vertex="1" parent="1">
          <mxGeometry x="80" y="-70" width="40" height="20" as="geometry" />
        </mxCell>
        <mxCell id="SVmz3g7F0THpbIimjzE1-66" value="&lt;ul&gt;&lt;li&gt;task1&lt;/li&gt;&lt;li&gt;task2&amp;nbsp;&lt;/li&gt;&lt;li&gt;task3&lt;/li&gt;&lt;/ul&gt;" style="text;strokeColor=none;fillColor=none;html=1;whiteSpace=wrap;verticalAlign=middle;overflow=hidden;" vertex="1" parent="1">
          <mxGeometry x="320" y="-35" width="100" height="80" as="geometry" />
        </mxCell>
        <mxCell id="SVmz3g7F0THpbIimjzE1-67" value="" style="endArrow=classic;html=1;exitX=0;exitY=0.5;exitDx=0;exitDy=0;entryX=1;entryY=0.5;entryDx=0;entryDy=0;" edge="1" parent="1" source="SVmz3g7F0THpbIimjzE1-66" target="SVmz3g7F0THpbIimjzE1-63">
          <mxGeometry width="50" height="50" relative="1" as="geometry">
            <mxPoint x="360" y="-60" as="sourcePoint" />
            <mxPoint x="410" y="-110" as="targetPoint" />
          </mxGeometry>
        </mxCell>
      </root>
    </mxGraphModel>
  </diagram>
</mxfile>
